# 3ds Max Wavefront OBJ Exporter v0.97b - (c)2007 guruware
# File Created: 31.01.2020 22:04:47

mtllib mecha_codo_02.mtl

#
# object codo2
#

v  -0.4487 -0.7163 2.0408
v  -0.4487 -0.7095 2.0109
v  -0.4487 -0.6980 1.9857
v  -0.4487 -0.6819 1.9650
v  -0.4487 -0.6613 1.9489
v  -0.4487 -0.6360 1.9375
v  -0.4487 -0.6062 1.9306
v  -0.4487 -0.5686 1.9283
v  -0.4487 -0.5686 2.0783
v  -0.4487 -0.7186 2.0783
v  -0.5987 -0.6062 1.9306
v  -0.5987 -0.6360 1.9375
v  -0.5987 -0.6613 1.9489
v  -0.5987 -0.6819 1.9650
v  -0.5987 -0.6980 1.9857
v  -0.5987 -0.7095 2.0109
v  -0.5987 -0.7163 2.0408
v  -0.5987 -0.7186 2.0783
v  -0.5987 -0.5686 2.0783
v  -0.5987 -0.5686 1.9283
# 20 vertices

vn 0.6894 -0.7171 -0.1028
vn 0.6849 -0.6903 -0.2333
vn 0.6819 -0.6257 -0.3790
vn 0.6805 -0.5187 -0.5175
vn 0.6812 -0.3785 -0.6267
vn 0.6858 -0.2327 -0.6896
vn 0.6889 -0.1042 -0.7174
vn 0.5742 0.5610 -0.5963
vn 0.5774 0.5774 0.5774
vn 0.5742 -0.5963 0.5610
vn -0.6889 -0.1042 -0.7174
vn -0.6858 -0.2327 -0.6896
vn -0.6812 -0.3785 -0.6267
vn -0.6805 -0.5187 -0.5175
vn -0.6819 -0.6257 -0.3790
vn -0.6849 -0.6903 -0.2333
vn -0.6894 -0.7171 -0.1028
vn -0.5742 -0.5963 0.5610
vn -0.5774 0.5774 0.5774
vn -0.5742 0.5610 -0.5963
# 20 vertex normals

vt 0.2502 0.0153 0.0000
vt 0.4492 0.0612 0.0000
vt 0.6175 0.1377 0.0000
vt 0.7552 0.2448 0.0000
vt 0.8623 0.3825 0.0000
vt 0.9388 0.5508 0.0000
vt 0.9847 0.7498 0.0000
vt 1.0000 1.0000 0.0000
vt 0.0000 1.0000 0.0000
vt 0.0000 0.0000 0.0000
vt 0.0153 0.7498 0.0000
vt 0.0612 0.5508 0.0000
vt 0.1377 0.3825 0.0000
vt 0.2448 0.2448 0.0000
vt 0.3825 0.1377 0.0000
vt 0.5508 0.0612 0.0000
vt 0.7498 0.0153 0.0000
vt 1.0000 0.0000 0.0000
vt 1.4212 0.0000 0.0000
vt 1.4212 1.0000 0.0000
vt 1.2325 1.0000 0.0000
vt 1.2325 0.0000 0.0000
vt 1.0594 1.0000 0.0000
vt 1.0594 0.0000 0.0000
vt 0.8863 1.0000 0.0000
vt 0.8863 0.0000 0.0000
vt 0.7132 1.0000 0.0000
vt 0.7132 0.0000 0.0000
vt 0.5401 1.0000 0.0000
vt 0.5401 0.0000 0.0000
vt 0.3669 1.0000 0.0000
vt 0.3669 0.0000 0.0000
vt 0.1938 1.0000 0.0000
vt 0.1938 0.0000 0.0000
# 34 texture coords

o codo2
g codo2
usemtl Mecha_prendida
s off
f 1/1/1 2/2/2 3/3/3 4/4/4 5/5/5 6/6/6 7/7/7 8/8/8 9/9/9 10/10/10 
f 11/11/11 12/12/12 13/13/13 14/14/14 15/15/15 16/16/16 17/17/17 18/18/18 19/8/19 20/9/20 
f 10/19/10 18/20/18 17/21/17 1/22/1 
f 10/10/10 9/18/9 19/8/19 18/9/18 
f 9/10/9 8/18/8 20/8/20 19/9/19 
f 17/21/17 16/23/16 2/24/2 1/22/1 
f 16/23/16 15/25/15 3/26/3 2/24/2 
f 15/25/15 14/27/14 4/28/4 3/26/3 
f 14/27/14 13/29/13 5/30/5 4/28/4 
f 13/29/13 12/31/12 6/32/6 5/30/5 
f 12/31/12 11/33/11 7/34/7 6/32/6 
f 11/33/11 20/9/20 8/10/8 7/34/7 
# 12 polygons

